<?xml version="1.0" standalone="no"?>
<!DOCTYPE svg PUBLIC "-//W3C//DTD SVG 20010904//EN"
 "http://www.w3.org/TR/2001/REC-SVG-20010904/DTD/svg10.dtd">
<svg version="1.0" xmlns="http://www.w3.org/2000/svg"
 width="512.000000pt" height="512.000000pt" viewBox="0 0 512.000000 512.000000"
 preserveAspectRatio="xMidYMid meet">
<metadata>
Created by potrace 1.11, written by Peter Selinger 2001-2013
</metadata>
<g transform="translate(0.000000,512.000000) scale(0.100000,-0.100000)"
fill="#000000" stroke="none">
<path d="M2330 5110 c-210 -21 -451 -75 -635 -142 -249 -90 -537 -253 -750
-425 -128 -103 -330 -311 -423 -435 -194 -258 -340 -555 -426 -863 -191 -681
-90 -1405 280 -2016 145 -240 419 -545 637 -708 631 -471 1420 -631 2178 -441
153 39 289 87 316 113 31 28 39 77 19 115 -32 61 -72 66 -202 22 -507 -173
-1042 -172 -1539 0 -199 70 -477 216 -627 330 -6 5 51 334 77 447 3 14 25 31
67 50 88 41 122 74 160 150 28 57 32 77 32 137 -1 46 -9 92 -23 131 -19 53
-21 72 -15 171 8 136 -6 190 -70 261 -59 66 -116 91 -268 121 l-130 25 -226
173 c-266 203 -243 196 -427 134 -65 -22 -120 -40 -121 -40 -7 0 -14 152 -8
199 l7 61 34 -30 c28 -25 42 -30 86 -30 80 0 354 46 381 64 32 21 50 74 36
111 -6 15 -38 68 -72 117 -49 71 -59 92 -47 98 8 5 52 37 99 72 l84 63 142
247 c116 203 154 261 214 325 150 160 185 337 100 509 -29 60 -104 150 -145
173 -19 11 -19 12 10 37 48 40 213 147 305 197 310 167 645 260 1018 280 52 3
70 1 64 -7 -5 -6 -45 -56 -89 -111 l-80 -100 -314 -109 c-356 -124 -383 -136
-403 -174 -37 -73 -196 -473 -196 -494 0 -29 24 -68 173 -275 98 -137 114
-163 101 -174 -8 -6 -53 -62 -99 -123 -46 -61 -114 -147 -150 -191 -174 -211
-209 -445 -100 -673 66 -140 209 -257 361 -297 79 -20 189 -19 309 4 138 27
147 23 158 -84 9 -89 28 -133 87 -204 68 -81 73 -114 35 -241 -36 -119 -34
-191 9 -310 57 -158 180 -452 208 -496 104 -163 282 -155 477 23 81 74 116
128 138 210 9 36 30 77 58 112 24 31 56 85 72 121 16 36 53 91 81 124 101 115
120 194 82 346 -33 133 -30 139 145 319 164 169 205 231 205 306 0 92 -50 142
-163 165 -117 23 -137 31 -170 65 -37 38 -89 138 -159 308 -121 295 -156 329
-423 407 l-139 40 -55 -16 c-36 -10 -66 -27 -86 -48 l-30 -33 -57 36 c-55 34
-58 38 -58 76 0 58 -36 106 -102 136 -50 23 -62 24 -226 22 l-173 -3 23 42
c43 77 119 118 231 126 69 4 84 9 111 33 25 22 31 35 31 69 0 35 -6 47 -33 71
-29 26 -39 29 -105 29 -144 0 -256 -48 -353 -153 l-53 -57 -39 52 c-60 83
-102 146 -102 154 0 5 32 85 71 180 l71 171 321 113 c177 61 331 118 343 125
12 8 87 96 168 198 l147 184 97 -13 c781 -107 1452 -591 1797 -1299 41 -82 94
-211 119 -286 l45 -137 -49 -50 c-37 -38 -54 -66 -68 -112 l-19 -62 -28 79
c-43 118 -67 160 -152 258 -57 65 -93 98 -132 118 -51 25 -63 27 -179 27 -109
0 -129 -3 -159 -21 -63 -39 -85 -128 -49 -196 l16 -33 -67 -50 c-63 -46 -250
-147 -258 -139 -2 2 -49 90 -104 196 -92 173 -101 196 -101 245 0 32 -7 65
-17 84 -23 39 -198 206 -238 226 -66 33 -196 70 -223 63 -62 -15 -94 -81 -67
-138 16 -35 36 -47 145 -87 38 -13 78 -41 128 -86 72 -65 72 -66 72 -117 0
-47 13 -77 138 -317 127 -243 142 -267 176 -284 37 -18 38 -18 106 4 159 51
351 165 478 285 l64 59 -4 54 -5 53 30 -3 c24 -2 47 -21 102 -83 71 -80 71
-80 144 -282 82 -226 97 -248 163 -247 35 1 48 9 105 65 36 35 75 86 88 112
l23 48 6 -55 c11 -84 8 -379 -4 -486 -38 -331 -165 -706 -332 -975 -127 -204
-286 -391 -469 -551 -116 -102 -132 -129 -109 -185 15 -34 56 -59 99 -59 54 0
277 199 437 391 167 202 350 518 439 763 237 648 196 1392 -112 2011 -381 764
-1090 1275 -1948 1401 -121 18 -458 26 -575 14z m-1334 -872 c70 -47 105 -105
111 -181 7 -83 -8 -116 -98 -217 -56 -62 -107 -139 -214 -323 l-140 -241 -115
-82 c-63 -45 -125 -94 -137 -109 -36 -42 -30 -81 26 -168 l50 -76 -27 -5 c-80
-17 -97 -12 -159 44 l-60 54 22 105 c94 443 295 822 618 1168 33 34 63 63 67
63 4 0 30 -15 56 -32z m1219 -897 c0 -51 16 -67 144 -148 198 -124 296 -133
377 -36 l21 25 94 -27 c51 -14 105 -33 121 -41 40 -21 70 -70 128 -214 84
-205 145 -320 200 -383 63 -70 116 -102 198 -118 34 -6 62 -15 62 -19 0 -4
-60 -67 -133 -141 -201 -203 -234 -289 -188 -483 12 -49 18 -99 15 -110 -4
-12 -33 -52 -66 -90 -33 -38 -77 -105 -99 -150 -21 -45 -55 -101 -74 -125 -23
-28 -43 -70 -58 -119 -17 -58 -31 -85 -63 -118 -43 -44 -138 -104 -165 -104
-9 0 -28 27 -47 68 -45 94 -150 354 -175 432 -22 69 -21 84 18 220 36 123 4
262 -82 362 -37 43 -41 52 -48 125 -11 124 -49 184 -146 234 -62 31 -114 33
-243 9 -151 -29 -215 -24 -305 22 -78 40 -139 109 -171 195 -18 49 -21 73 -18
153 5 121 27 169 140 305 46 55 101 125 122 155 59 83 96 118 134 131 19 6 90
15 156 19 67 4 128 8 136 8 12 2 15 -8 15 -37z m-1526 -1214 l216 -163 140
-28 c77 -15 152 -34 166 -42 44 -22 54 -62 40 -157 -12 -76 -11 -88 10 -162
52 -188 44 -205 -134 -269 -31 -12 -52 -27 -61 -44 -8 -15 -31 -117 -51 -227
-21 -110 -41 -204 -45 -208 -10 -11 -198 190 -282 301 -149 200 -276 432 -351
648 -42 119 -95 330 -99 393 l-3 44 110 38 c61 20 114 38 119 38 5 1 107 -72
225 -162z"/>
<path d="M2608 3923 c-87 -54 -47 -182 57 -183 52 0 82 21 95 68 15 49 1 86
-42 112 -40 24 -74 25 -110 3z"/>
<path d="M3889 1904 c-13 -14 -42 -60 -64 -102 -38 -73 -44 -79 -110 -114
-126 -68 -172 -144 -163 -270 4 -49 -1 -80 -24 -150 -15 -48 -28 -109 -28
-136 1 -115 112 -242 212 -242 73 1 152 61 198 150 30 59 73 183 136 395 62
211 63 221 24 362 -27 102 -54 133 -115 133 -32 0 -47 -6 -66 -26z m-29 -377
c0 -8 -80 -266 -99 -320 -11 -31 -26 -66 -34 -78 -29 -41 -27 10 4 104 27 81
30 101 25 163 -6 60 -4 73 11 86 30 26 93 56 93 45z"/>
<path d="M3738 514 c-57 -31 -66 -107 -19 -155 47 -47 133 -32 160 28 15 32
14 49 -4 88 -25 52 -83 69 -137 39z"/>
</g>
</svg>
